<svg width="15" height="13" viewBox="0 0 15 13" fill="none" xmlns="http://www.w3.org/2000/svg">
<path d="M12.8033 2.29009H11.0328L8.95503 0.197653C8.67701 -0.065731 8.25267 -0.065731 7.97466 0.197653C7.71127 0.475668 7.71127 0.900008 7.97466 1.17802L9.08672 2.29009H5.09207L6.20414 1.17802C6.46752 0.900008 6.46752 0.475668 6.20414 0.197653C5.94075 -0.065731 5.50178 -0.065731 5.2384 0.197653L3.14597 2.29009H1.37545C0.614561 2.29009 0 2.90465 0 3.66553V5.71407C0 6.09451 0.30728 6.40179 0.687723 6.40179H1.00964L1.68273 10.733C1.81442 11.6695 2.6192 12.3572 3.57031 12.3425H10.6231C11.5596 12.3572 12.3644 11.6695 12.4961 10.733L13.1692 6.40179H13.4911C13.8715 6.40179 14.1788 6.09451 14.1788 5.71407V3.66553C14.1788 2.90465 13.5642 2.29009 12.8033 2.29009ZM1.37545 5.02634V3.66553H12.8033V5.02634H1.37545ZM11.7791 6.40179L11.1499 10.5281C11.106 10.7915 10.8865 10.9817 10.6231 10.9817H3.57031C3.30692 10.9817 3.0728 10.7915 3.04354 10.5281L2.39971 6.40179H11.7791ZM4.57994 9.37217V8.01135C4.57994 7.63091 4.88722 7.32363 5.26766 7.32363C5.63347 7.32363 5.94075 7.63091 5.94075 8.01135V9.37217C5.94075 9.75261 5.63347 10.0599 5.26766 10.0599C4.88722 10.0599 4.57994 9.75261 4.57994 9.37217ZM7.7698 9.37217V8.01135C7.7698 7.63091 8.07708 7.32363 8.45753 7.32363C8.83797 7.32363 9.14525 7.63091 9.14525 8.01135V9.37217C9.14525 9.75261 8.83797 10.0599 8.45753 10.0599C8.07708 10.0599 7.7698 9.75261 7.7698 9.37217Z" fill="#131313"/>
</svg>
